<?xml version="1.0" standalone="no"?>
<!DOCTYPE svg PUBLIC "-//W3C//DTD SVG 20010904//EN"
 "http://www.w3.org/TR/2001/REC-SVG-20010904/DTD/svg10.dtd">
<svg version="1.0" xmlns="http://www.w3.org/2000/svg"
 width="176.000000pt" height="176.000000pt" viewBox="0 0 176.000000 176.000000"
 preserveAspectRatio="xMidYMid meet">
<metadata>
Created by potrace 1.14, written by Peter Selinger 2001-2017
</metadata>
<g transform="translate(0.000000,176.000000) scale(0.100000,-0.100000)"
fill="#000000" stroke="none">
<path d="M160 920 l0 -730 130 0 130 0 0 179 0 178 48 46 c26 25 61 57 77 72
124 112 192 173 211 192 13 13 27 23 31 23 4 0 24 -23 43 -51 19 -27 42 -58
50 -69 8 -10 104 -143 214 -294 l198 -276 160 0 160 0 -15 23 c-19 29 -263
368 -275 382 -5 6 -17 24 -28 40 -10 17 -21 32 -25 35 -4 3 -17 21 -30 40 -13
19 -43 61 -67 92 -23 31 -42 61 -42 67 0 5 -4 11 -8 13 -14 5 -132 171 -132
185 0 6 6 16 14 20 12 7 62 52 280 254 34 31 73 67 87 80 15 13 67 61 115 106
49 45 100 91 113 102 l24 21 -194 0 c-187 0 -195 -1 -220 -23 -14 -12 -75 -67
-134 -122 -147 -136 -150 -139 -251 -231 -49 -45 -101 -93 -115 -105 -14 -13
-65 -60 -113 -104 -49 -44 -107 -97 -130 -118 l-41 -37 -3 370 -2 370 -130 0
-130 0 0 -730z"/>
</g>
</svg>
